<?xml version="1.0" encoding="UTF-8"?>
<svg width="32px" height="32px" viewBox="0 0 32 32" version="1.1" xmlns="http://www.w3.org/2000/svg">
    <g stroke="none" stroke-width="1" fill="none" fill-rule="evenodd">
        <rect fill="#009688" x="0" y="0" width="32" height="32" rx="4"/>
        <path d="M8,8 L24,8 C25.1045695,8 26,8.8954305 26,10 L26,22 C26,23.1045695 25.1045695,24 24,24 L8,24 C6.8954305,24 6,23.1045695 6,22 L6,10 C6,8.8954305 6.8954305,8 8,8 Z M8,12 L24,12 L24,22 L8,22 L8,12 Z" fill="#FFFFFF" fill-rule="nonzero"/>
        <rect fill="#FFFFFF" x="10" y="14" width="8" height="2" rx="1"/>
        <rect fill="#FFFFFF" x="10" y="18" width="12" height="2" rx="1"/>
    </g>
</svg>
